<svg width="516" height="512" viewBox="0 0 516 512" fill="none" xmlns="http://www.w3.org/2000/svg">
<g filter="url(#filter0_d_2001_14)">
<path d="M506.135 243.2C508.827 247.863 510.173 250.195 510.7 252.673C511.166 254.867 511.166 257.133 510.7 259.327C510.173 261.805 508.827 264.137 506.135 268.8L392.915 464.903C390.223 469.566 388.877 471.897 386.993 473.593C385.327 475.093 383.364 476.227 381.231 476.919C378.821 477.703 376.129 477.703 370.745 477.703H144.305C138.92 477.703 136.228 477.703 133.818 476.919C131.686 476.227 129.723 475.093 128.056 473.593C126.173 471.897 124.827 469.566 122.135 464.903L8.91486 268.8C6.22263 264.137 4.8765 261.805 4.34964 259.327C3.88345 257.133 3.88345 254.867 4.34964 252.673C4.8765 250.195 6.22263 247.863 8.91486 243.2L122.135 47.0975C124.827 42.4344 126.173 40.1029 128.056 38.4072C129.723 36.9068 131.686 35.7735 133.818 35.0806C136.228 34.2975 138.92 34.2975 144.305 34.2975H370.745C376.129 34.2975 378.821 34.2975 381.231 35.0806C383.364 35.7735 385.327 36.9068 386.993 38.4072C388.877 40.1029 390.223 42.4344 392.915 47.0975L506.135 243.2Z" fill="#2C80FF"/>
</g>
<g filter="url(#filter1_d_2001_14)">
<path d="M75.6798 327.96C73.5998 327.96 71.9198 327.72 70.6398 327.24C69.5198 326.92 68.9598 326.2 68.9598 325.08C68.9598 323.96 69.5998 323.16 70.8798 322.68C72.3198 322.04 74.2398 321.4 76.6398 320.76C80.4798 319.8 83.6798 317.8 86.2398 314.76C88.9598 311.72 90.7198 307.48 91.5198 302.04C93.1198 290.04 94.5598 277.96 95.8398 265.8C97.1198 253.48 98.2398 241.8 99.1998 230.76C100.16 219.56 100.8 209.64 101.12 201C101.12 199.88 101.12 198.6 101.12 197.16C101.12 195.72 101.04 194.36 100.88 193.08C100.88 191.32 100.56 189.72 99.9198 188.28C99.4398 186.68 98.3198 185.32 96.5598 184.2C93.9998 182.12 91.4398 180.68 88.8798 179.88C86.3198 178.92 83.4398 178.12 80.2398 177.48C78.4798 177.16 77.0398 176.6 75.9198 175.8C74.9598 174.84 74.4798 173.8 74.4798 172.68C74.4798 171.24 75.1998 170.36 76.6398 170.04C78.0798 169.72 79.9198 169.56 82.1598 169.56C84.0798 169.56 86.7198 169.64 90.0798 169.8C93.4398 169.96 97.1198 170.2 101.12 170.52C105.12 170.68 108.88 170.84 112.4 171C116.08 171.16 119.12 171.24 121.52 171.24C122.64 171.24 123.68 171.64 124.64 172.44C125.6 173.08 126.24 174.04 126.56 175.32C127.36 178.2 128.16 181.16 128.96 184.2C129.92 187.24 130.96 190.36 132.08 193.56L169.04 285.48C169.52 286.44 170.24 287 171.2 287.16C172.32 287.32 173.12 286.92 173.6 285.96L216.32 194.04C217.28 190.36 218.08 186.84 218.72 183.48C219.52 179.96 220.24 177 220.88 174.6C221.36 172.52 222.32 171.48 223.76 171.48H232.88C238.32 171.48 244.08 171.16 250.16 170.52C256.24 169.72 260.88 169.32 264.08 169.32C265.2 169.32 266.4 169.56 267.68 170.04C268.96 170.36 269.6 171.08 269.6 172.2C269.6 173.48 269.12 174.44 268.16 175.08C267.2 175.72 265.68 176.44 263.6 177.24C261.84 177.88 259.92 178.6 257.84 179.4C255.76 180.2 253.84 181 252.08 181.8C249.52 182.92 247.52 184.44 246.08 186.36C244.64 188.12 244 190.52 244.16 193.56C244.16 204.92 244.4 215.32 244.88 224.76C245.36 234.04 245.76 242.92 246.08 251.4C246.56 259.88 247.12 268.36 247.76 276.84C248.4 285.32 248.96 294.36 249.44 303.96C249.76 308.6 251.44 312.28 254.48 315C257.52 317.56 261.84 319.4 267.44 320.52C269.68 321 271.36 321.56 272.48 322.2C273.76 322.84 274.4 323.8 274.4 325.08C274.4 326.04 273.84 326.76 272.72 327.24C271.6 327.72 270.08 327.96 268.16 327.96C264.16 327.96 260.48 327.8 257.12 327.48C253.76 327.32 250.4 327.16 247.04 327C243.84 326.84 240.48 326.76 236.96 326.76C233.76 326.76 230.8 326.84 228.08 327C225.36 327.16 222.48 327.32 219.44 327.48C216.4 327.8 212.8 327.96 208.64 327.96C206.88 327.96 205.36 327.72 204.08 327.24C202.96 326.92 202.4 326.2 202.4 325.08C202.4 323.96 202.96 323 204.08 322.2C205.36 321.4 207.12 320.84 209.36 320.52C214.48 319.72 218 318.12 219.92 315.72C221.84 313.16 222.8 309.24 222.8 303.96C222.64 292.92 222.4 282.68 222.08 273.24C221.92 263.8 221.6 254.52 221.12 245.4C220.64 236.12 220.16 226.36 219.68 216.12C219.68 214.68 219.28 214.04 218.48 214.2C217.84 214.2 217.12 214.92 216.32 216.36L164.48 327.72C164 329 163.12 329.56 161.84 329.4C160.56 329.4 159.76 328.84 159.44 327.72C152.56 309 145.28 290.6 137.6 272.52C130.08 254.28 122.16 235.24 113.84 215.4C113.36 214.44 112.64 214.04 111.68 214.2C110.88 214.36 110.4 215 110.24 216.12C109.12 226.2 108.08 235.96 107.12 245.4C106.32 254.84 105.68 264.2 105.2 273.48C104.88 282.76 104.72 292.36 104.72 302.28C104.72 306.76 106.08 310.68 108.8 314.04C111.68 317.24 115.76 319.4 121.04 320.52C123.44 321 125.28 321.56 126.56 322.2C128 322.84 128.72 323.8 128.72 325.08C128.72 326.04 128.08 326.76 126.8 327.24C125.52 327.72 123.92 327.96 122 327.96C117.68 327.96 114.4 327.8 112.16 327.48C109.92 327.32 107.92 327.16 106.16 327C104.4 327 101.92 327 98.7198 327C95.6798 327 92.9598 327.08 90.5598 327.24C88.3198 327.4 85.9998 327.56 83.5998 327.72C81.3598 327.88 78.7198 327.96 75.6798 327.96ZM288.134 328.2C286.214 328.2 284.614 327.88 283.334 327.24C282.054 326.76 281.414 325.96 281.414 324.84C281.414 323.56 282.054 322.52 283.334 321.72C284.614 320.92 286.374 320.12 288.614 319.32C292.934 318.04 296.854 316.12 300.374 313.56C303.894 311 306.774 307.08 309.014 301.8C313.334 292.04 317.334 282.76 321.014 273.96C324.694 265 328.214 256.2 331.574 247.56C334.934 238.92 338.374 230.04 341.894 220.92C345.414 211.64 349.014 201.8 352.694 191.4C354.134 187.72 355.174 184.68 355.814 182.28C356.454 179.72 356.854 177.48 357.014 175.56C359.094 175.08 361.014 174.6 362.774 174.12C364.534 173.48 366.454 172.6 368.534 171.48C370.454 170.52 371.894 169.16 372.854 167.4C373.974 165.48 374.854 164.12 375.494 163.32C375.814 163.16 376.134 163.08 376.454 163.08C376.934 162.92 377.334 163.16 377.654 163.8C378.134 164.6 378.454 165.48 378.614 166.44C378.934 167.4 379.254 168.44 379.574 169.56C383.254 181.24 387.014 193.16 390.854 205.32C394.854 217.32 398.774 229.08 402.614 240.6C406.454 252.12 410.054 262.84 413.414 272.76C416.774 282.52 419.654 291.08 422.054 298.44C423.814 303.72 425.894 307.8 428.294 310.68C430.694 313.4 433.254 315.48 435.974 316.92C438.694 318.2 441.654 319.16 444.854 319.8C447.254 320.28 449.014 321 450.134 321.96C451.414 322.92 452.054 324.04 452.054 325.32C452.054 326.28 451.414 326.92 450.134 327.24C449.014 327.72 447.574 327.96 445.814 327.96C443.254 327.96 439.894 327.8 435.734 327.48C431.574 327.32 427.254 327.16 422.774 327C418.294 326.84 414.214 326.76 410.534 326.76C407.494 326.76 404.134 326.76 400.454 326.76C396.774 326.76 393.254 326.84 389.894 327C386.694 327.16 383.894 327.24 381.494 327.24C379.574 327.24 377.974 327 376.694 326.52C375.574 325.88 375.014 325.08 375.014 324.12C375.014 322.84 375.734 321.8 377.174 321C378.614 320.2 380.294 319.64 382.214 319.32C387.654 318.36 391.574 316.92 393.974 315C396.534 313.08 397.574 310.52 397.094 307.32C396.934 304.6 396.374 301.24 395.414 297.24C394.454 293.08 393.334 288.76 392.054 284.28C390.774 279.64 389.574 275.4 388.454 271.56C388.134 270.28 387.574 269.48 386.774 269.16C385.974 268.84 384.614 268.68 382.694 268.68H338.294C337.494 268.68 336.774 269 336.134 269.64C335.494 270.12 334.854 271.16 334.214 272.76C333.734 274.68 332.934 277.16 331.814 280.2C330.854 283.08 329.894 286.2 328.934 289.56C327.974 292.76 327.094 295.8 326.294 298.68C325.654 301.4 325.254 303.4 325.094 304.68C324.614 308.68 325.574 311.88 327.974 314.28C330.534 316.52 334.294 318.28 339.254 319.56C344.054 320.84 346.454 322.44 346.454 324.36C346.454 325.48 345.814 326.28 344.534 326.76C343.414 327.08 341.894 327.24 339.974 327.24C336.934 327.24 333.414 327.16 329.414 327C325.414 326.84 321.174 326.76 316.694 326.76C311.574 326.76 306.614 327 301.814 327.48C297.014 327.96 292.454 328.2 288.134 328.2ZM345.014 258.84H380.054C382.294 258.84 383.414 258.44 383.414 257.64C383.414 257.16 383.334 256.76 383.174 256.44C383.174 256.12 383.094 255.64 382.934 255L365.174 198.12C364.374 195.56 363.734 194.28 363.254 194.28C362.934 194.28 362.374 195.48 361.574 197.88L340.694 255C340.374 255.96 340.214 256.6 340.214 256.92C340.214 257.72 340.614 258.28 341.414 258.6C342.374 258.76 343.574 258.84 345.014 258.84Z" fill="white"/>
</g>
<defs>
<filter id="filter0_d_2001_14" x="0" y="34.2975" width="515.05" height="451.405" filterUnits="userSpaceOnUse" color-interpolation-filters="sRGB">
<feFlood flood-opacity="0" result="BackgroundImageFix"/>
<feColorMatrix in="SourceAlpha" type="matrix" values="0 0 0 0 0 0 0 0 0 0 0 0 0 0 0 0 0 0 127 0" result="hardAlpha"/>
<feOffset dy="4"/>
<feGaussianBlur stdDeviation="2"/>
<feComposite in2="hardAlpha" operator="out"/>
<feColorMatrix type="matrix" values="0 0 0 0 0 0 0 0 0 0 0 0 0 0 0 0 0 0 0.25 0"/>
<feBlend mode="normal" in2="BackgroundImageFix" result="effect1_dropShadow_2001_14"/>
<feBlend mode="normal" in="SourceGraphic" in2="effect1_dropShadow_2001_14" result="shape"/>
</filter>
<filter id="filter1_d_2001_14" x="66.9598" y="160.84" width="395.094" height="178.8" filterUnits="userSpaceOnUse" color-interpolation-filters="sRGB">
<feFlood flood-opacity="0" result="BackgroundImageFix"/>
<feColorMatrix in="SourceAlpha" type="matrix" values="0 0 0 0 0 0 0 0 0 0 0 0 0 0 0 0 0 0 127 0" result="hardAlpha"/>
<feOffset dx="4" dy="4"/>
<feGaussianBlur stdDeviation="3"/>
<feComposite in2="hardAlpha" operator="out"/>
<feColorMatrix type="matrix" values="0 0 0 0 0 0 0 0 0 0 0 0 0 0 0 0 0 0 0.3 0"/>
<feBlend mode="normal" in2="BackgroundImageFix" result="effect1_dropShadow_2001_14"/>
<feBlend mode="normal" in="SourceGraphic" in2="effect1_dropShadow_2001_14" result="shape"/>
</filter>
</defs>
</svg>
