<svg width="516" height="512" viewBox="0 0 516 512" fill="none" xmlns="http://www.w3.org/2000/svg">
<g filter="url(#filter0_d_2001_14)">
<path d="M506.135 243.2C508.827 247.863 510.173 250.195 510.7 252.673C511.166 254.867 511.166 257.133 510.7 259.327C510.173 261.805 508.827 264.137 506.135 268.8L392.915 464.903C390.223 469.566 388.877 471.897 386.993 473.593C385.327 475.093 383.364 476.227 381.231 476.919C378.821 477.703 376.129 477.703 370.745 477.703H144.305C138.92 477.703 136.228 477.703 133.818 476.919C131.686 476.227 129.723 475.093 128.056 473.593C126.173 471.897 124.827 469.566 122.135 464.903L8.91486 268.8C6.22263 264.137 4.8765 261.805 4.34964 259.327C3.88345 257.133 3.88345 254.867 4.34964 252.673C4.8765 250.195 6.22263 247.863 8.91486 243.2L122.135 47.0975C124.827 42.4344 126.173 40.1029 128.056 38.4072C129.723 36.9068 131.686 35.7735 133.818 35.0806C136.228 34.2975 138.92 34.2975 144.305 34.2975H370.745C376.129 34.2975 378.821 34.2975 381.231 35.0806C383.364 35.7735 385.327 36.9068 386.993 38.4072C388.877 40.1029 390.223 42.4344 392.915 47.0975L506.135 243.2Z" fill="#2C80FF"/>
</g>
<g filter="url(#filter1_d_2001_14)">
<path d="M77.7948 328.2C75.7148 328.2 74.0348 327.96 72.7548 327.48C71.4748 327.16 70.8348 326.52 70.8348 325.56C70.8348 324.44 71.4748 323.56 72.7548 322.92C74.0348 322.28 76.0348 321.72 78.7548 321.24C82.7548 320.44 86.0348 318.52 88.5948 315.48C91.1548 312.44 92.8348 308.12 93.6348 302.52C95.5548 288.12 97.2348 274.44 98.6748 261.48C100.115 248.36 101.235 236.6 102.035 226.2C102.995 215.64 103.475 207 103.475 200.28C103.475 199 103.475 197.64 103.475 196.2C103.475 194.76 103.395 193.48 103.235 192.36C103.075 191.08 102.835 189.8 102.515 188.52C102.195 187.08 101.235 185.72 99.6348 184.44C96.7548 182.04 93.9548 180.44 91.2348 179.64C88.5148 178.68 85.3148 177.88 81.6348 177.24C80.0348 176.92 78.7548 176.36 77.7948 175.56C76.8348 174.6 76.3548 173.56 76.3548 172.44C76.3548 171.16 77.0748 170.44 78.5148 170.28C80.1148 169.96 82.1148 169.8 84.5148 169.8C86.1148 169.8 88.5148 169.88 91.7148 170.04C95.0748 170.2 98.6748 170.44 102.515 170.76C106.355 171.08 109.875 171.32 113.075 171.48C116.435 171.64 118.915 171.72 120.515 171.72C121.635 171.72 122.595 172.04 123.395 172.68C124.195 173.32 124.755 174.28 125.075 175.56C125.875 178.44 126.675 181.48 127.475 184.68C128.275 187.88 129.235 191 130.355 194.04L168.275 290.28C168.755 291.4 169.635 292.12 170.915 292.44C172.195 292.6 173.155 292.12 173.795 291L221.075 192.6C221.875 189.88 222.675 186.84 223.475 183.48C224.275 180.12 224.915 177.16 225.395 174.6C225.875 172.52 226.675 171.48 227.795 171.48H236.435C241.235 171.48 246.275 171.16 251.555 170.52C256.995 169.88 261.075 169.56 263.795 169.56C264.595 169.56 265.635 169.72 266.915 170.04C268.195 170.2 268.835 170.84 268.835 171.96C268.835 173.08 268.355 173.96 267.395 174.6C266.595 175.24 264.995 176.04 262.595 177C260.515 177.8 258.195 178.68 255.635 179.64C253.075 180.6 250.675 181.56 248.435 182.52C246.835 183.16 245.475 184.28 244.355 185.88C243.235 187.32 242.675 188.92 242.675 190.68C242.675 201.88 242.835 212.44 243.155 222.36C243.635 232.12 244.115 241.56 244.595 250.68C245.075 259.64 245.635 268.52 246.275 277.32C246.915 286.12 247.475 295.08 247.955 304.2C248.275 309.16 249.875 313 252.755 315.72C255.635 318.28 260.035 320.12 265.955 321.24C268.675 321.72 270.675 322.28 271.955 322.92C273.235 323.56 273.875 324.44 273.875 325.56C273.875 326.52 273.235 327.16 271.955 327.48C270.675 327.96 268.995 328.2 266.915 328.2C262.595 328.2 258.995 328.04 256.115 327.72C253.395 327.56 250.755 327.4 248.195 327.24C245.635 327.08 242.515 327 238.835 327C235.635 327 232.915 327.08 230.675 327.24C228.595 327.4 226.275 327.56 223.715 327.72C221.315 328.04 217.955 328.2 213.635 328.2C211.555 328.2 209.875 327.96 208.595 327.48C207.315 327.16 206.675 326.52 206.675 325.56C206.675 324.44 207.315 323.56 208.595 322.92C209.875 322.12 211.875 321.56 214.595 321.24C219.235 320.6 222.435 319 224.195 316.44C225.955 313.72 226.835 309.56 226.835 303.96C226.835 292.44 226.675 282.04 226.355 272.76C226.195 263.48 225.875 254.36 225.395 245.4C224.915 236.28 224.435 226.36 223.955 215.64C223.795 213.88 223.315 213.08 222.515 213.24C221.715 213.24 220.915 214.04 220.115 215.64L164.915 328.2C164.595 329 163.875 329.4 162.755 329.4C161.635 329.56 160.915 329.08 160.595 327.96C154.355 309.24 147.635 290.84 140.435 272.76C133.395 254.52 125.395 234.92 116.435 213.96C116.115 213.16 115.555 212.76 114.755 212.76C113.955 212.76 113.475 213.16 113.315 213.96C111.875 225.16 110.515 235.48 109.235 244.92C108.115 254.2 107.235 263.4 106.595 272.52C105.955 281.64 105.635 291.64 105.635 302.52C105.635 306.84 106.995 310.84 109.715 314.52C112.435 318.04 116.275 320.28 121.235 321.24C123.955 321.72 125.955 322.28 127.235 322.92C128.515 323.56 129.155 324.44 129.155 325.56C129.155 326.52 128.515 327.16 127.235 327.48C125.955 327.96 124.275 328.2 122.195 328.2C117.875 328.2 114.595 328.04 112.355 327.72C110.275 327.56 108.355 327.4 106.595 327.24C104.995 327.08 102.675 327 99.6348 327C96.7548 327 94.5148 327.08 92.9148 327.24C91.3148 327.4 89.4748 327.56 87.3948 327.72C85.3148 328.04 82.1148 328.2 77.7948 328.2ZM289.083 328.2C287.003 328.2 285.323 327.88 284.043 327.24C282.763 326.76 282.123 326.04 282.123 325.08C282.123 323.96 282.763 323 284.043 322.2C285.483 321.24 287.483 320.36 290.043 319.56C294.203 318.28 298.043 316.36 301.563 313.8C305.083 311.24 308.123 307 310.683 301.08C315.163 290.84 319.243 281.24 322.923 272.28C326.763 263.32 330.363 254.52 333.723 245.88C337.083 237.24 340.523 228.28 344.043 219C347.723 209.56 351.563 199.32 355.563 188.28C356.363 186.04 357.083 183.8 357.723 181.56C358.363 179.32 358.763 176.92 358.923 174.36C360.363 173.88 361.803 173.4 363.243 172.92C364.683 172.44 366.123 171.72 367.563 170.76C369.003 169.8 369.963 168.36 370.443 166.44C371.083 164.52 371.643 163.24 372.123 162.6C372.283 162.44 372.443 162.36 372.603 162.36C372.923 162.36 373.163 162.52 373.323 162.84C373.643 163.48 373.883 164.28 374.043 165.24C374.363 166.2 374.683 167.16 375.003 168.12C378.843 180.28 382.843 192.68 387.003 205.32C391.163 217.96 395.163 230.2 399.003 242.04C403.003 253.72 406.603 264.28 409.803 273.72C413.163 283 415.803 290.52 417.723 296.28C419.963 302.68 422.363 307.48 424.923 310.68C427.483 313.88 430.123 316.12 432.843 317.4C435.723 318.68 438.763 319.64 441.963 320.28C444.683 320.76 446.683 321.56 447.963 322.68C449.243 323.64 449.883 324.68 449.883 325.8C449.883 326.76 449.243 327.4 447.963 327.72C446.683 328.04 445.003 328.2 442.923 328.2C440.683 328.2 437.643 328.04 433.803 327.72C429.963 327.56 425.883 327.32 421.563 327C417.243 326.84 413.243 326.76 409.563 326.76C406.523 326.76 403.403 326.76 400.203 326.76C397.003 326.76 394.043 326.84 391.323 327C388.603 327 386.283 327 384.363 327C382.283 327 380.603 326.76 379.323 326.28C378.043 325.8 377.403 325.08 377.403 324.12C377.403 323 378.203 322.04 379.803 321.24C381.403 320.44 383.243 319.88 385.323 319.56C390.603 318.76 394.363 317.4 396.603 315.48C398.843 313.56 399.963 311.32 399.963 308.76C399.963 306.36 399.403 302.92 398.283 298.44C397.323 293.8 396.123 288.92 394.683 283.8C393.243 278.52 391.883 273.88 390.603 269.88C390.283 268.6 389.643 267.88 388.683 267.72C387.883 267.4 386.363 267.24 384.123 267.24H338.763C338.123 267.24 337.403 267.56 336.603 268.2C335.963 268.68 335.323 269.8 334.683 271.56C334.203 273.16 333.403 275.72 332.283 279.24C331.163 282.6 330.043 286.2 328.923 290.04C327.803 293.88 326.843 297.32 326.043 300.36C325.243 303.4 324.843 305.32 324.843 306.12C324.843 309.64 326.203 312.6 328.923 315C331.643 317.24 334.923 318.84 338.763 319.8C344.043 321.24 346.683 322.84 346.683 324.6C346.683 325.56 346.043 326.28 344.763 326.76C343.483 327.08 341.803 327.24 339.723 327.24C337.643 327.24 334.603 327.16 330.603 327C326.603 326.84 322.363 326.76 317.883 326.76C312.603 326.76 307.483 327 302.523 327.48C297.563 327.96 293.083 328.2 289.083 328.2ZM345.243 259.32H382.443C384.683 259.32 385.803 258.92 385.803 258.12C385.803 257.8 385.723 257.48 385.563 257.16C385.563 256.68 385.483 256.2 385.323 255.72L366.603 197.16C365.643 194.28 364.923 192.84 364.443 192.84C364.123 192.84 363.483 194.2 362.523 196.92L340.683 255.72C340.363 256.68 340.203 257.32 340.203 257.64C340.203 258.44 340.603 258.92 341.403 259.08C342.363 259.24 343.643 259.32 345.243 259.32Z" fill="white"/>
</g>
<defs>
<filter id="filter0_d_2001_14" x="0" y="34.2975" width="515.05" height="451.405" filterUnits="userSpaceOnUse" color-interpolation-filters="sRGB">
<feFlood flood-opacity="0" result="BackgroundImageFix"/>
<feColorMatrix in="SourceAlpha" type="matrix" values="0 0 0 0 0 0 0 0 0 0 0 0 0 0 0 0 0 0 127 0" result="hardAlpha"/>
<feOffset dy="4"/>
<feGaussianBlur stdDeviation="2"/>
<feComposite in2="hardAlpha" operator="out"/>
<feColorMatrix type="matrix" values="0 0 0 0 0 0 0 0 0 0 0 0 0 0 0 0 0 0 0.25 0"/>
<feBlend mode="normal" in2="BackgroundImageFix" result="effect1_dropShadow_2001_14"/>
<feBlend mode="normal" in="SourceGraphic" in2="effect1_dropShadow_2001_14" result="shape"/>
</filter>
<filter id="filter1_d_2001_14" x="68.8348" y="160.36" width="391.048" height="179.28" filterUnits="userSpaceOnUse" color-interpolation-filters="sRGB">
<feFlood flood-opacity="0" result="BackgroundImageFix"/>
<feColorMatrix in="SourceAlpha" type="matrix" values="0 0 0 0 0 0 0 0 0 0 0 0 0 0 0 0 0 0 127 0" result="hardAlpha"/>
<feOffset dx="4" dy="4"/>
<feGaussianBlur stdDeviation="3"/>
<feComposite in2="hardAlpha" operator="out"/>
<feColorMatrix type="matrix" values="0 0 0 0 0 0 0 0 0 0 0 0 0 0 0 0 0 0 0.3 0"/>
<feBlend mode="normal" in2="BackgroundImageFix" result="effect1_dropShadow_2001_14"/>
<feBlend mode="normal" in="SourceGraphic" in2="effect1_dropShadow_2001_14" result="shape"/>
</filter>
</defs>
</svg>
